<svg width="43" height="25" viewBox="0 0 43 25" fill="none" xmlns="http://www.w3.org/2000/svg">
<path d="M3.77273 24H0.818182L9.36364 0.727272H12.2727L20.8182 24H17.8636L10.9091 4.40909H10.7273L3.77273 24ZM4.86364 14.9091H16.7727V17.4091H4.86364V14.9091ZM42.0767 8H39.2585C39.0919 7.18939 38.8002 6.47727 38.3835 5.86364C37.9744 5.25 37.4744 4.73485 36.8835 4.31818C36.3002 3.89394 35.6525 3.57576 34.9403 3.36364C34.2282 3.15151 33.4858 3.04545 32.7131 3.04545C31.304 3.04545 30.0275 3.40151 28.8835 4.11364C27.7472 4.82576 26.8419 5.875 26.1676 7.26136C25.5009 8.64773 25.1676 10.3485 25.1676 12.3636C25.1676 14.3788 25.5009 16.0795 26.1676 17.4659C26.8419 18.8523 27.7472 19.9015 28.8835 20.6136C30.0275 21.3258 31.304 21.6818 32.7131 21.6818C33.4858 21.6818 34.2282 21.5758 34.9403 21.3636C35.6525 21.1515 36.3002 20.8371 36.8835 20.4205C37.4744 19.9962 37.9744 19.4773 38.3835 18.8636C38.8002 18.2424 39.0919 17.5303 39.2585 16.7273H42.0767C41.8646 17.9167 41.4782 18.9811 40.9176 19.9205C40.357 20.8598 39.66 21.6591 38.8267 22.3182C37.9934 22.9697 37.0578 23.4659 36.0199 23.8068C34.9896 24.1477 33.8873 24.3182 32.7131 24.3182C30.7282 24.3182 28.9631 23.8333 27.4176 22.8636C25.8722 21.8939 24.6563 20.5152 23.7699 18.7273C22.8835 16.9394 22.4403 14.8182 22.4403 12.3636C22.4403 9.90909 22.8835 7.78788 23.7699 6C24.6563 4.21212 25.8722 2.83333 27.4176 1.86364C28.9631 0.893939 30.7282 0.40909 32.7131 0.40909C33.8873 0.40909 34.9896 0.579545 36.0199 0.920454C37.0578 1.26136 37.9934 1.76136 38.8267 2.42045C39.66 3.07197 40.357 3.86742 40.9176 4.80682C41.4782 5.73864 41.8646 6.80303 42.0767 8Z" fill="white"/>
</svg>
