<svg width="33" height="33" viewBox="0 0 33 33" fill="none" xmlns="http://www.w3.org/2000/svg">
<path d="M23.0643 9.67681C23.0587 10.4691 22.8905 11.2517 22.5701 11.9763C22.2497 12.7009 21.784 13.352 21.2018 13.8893C19.9747 15.0075 18.3744 15.6273 16.7143 15.6273C15.0541 15.6273 13.4538 15.0075 12.2268 13.8893C11.6408 13.3552 11.1727 12.7046 10.8524 11.9793C10.5321 11.2539 10.3667 10.4697 10.3667 9.67681C10.3667 8.8839 10.5321 8.09971 10.8524 7.37436C11.1727 6.64901 11.6408 5.99847 12.2268 5.46431C13.4499 4.33814 15.0517 3.71301 16.7143 3.71301C18.3769 3.71301 19.9787 4.33814 21.2018 5.46431C21.7858 6.00018 22.2527 6.65101 22.5732 7.37593C22.8937 8.10085 23.0609 8.8842 23.0643 9.67681Z" stroke="white" stroke-width="3" stroke-linecap="round" stroke-linejoin="round"/>
<path d="M24.2143 22.6768C24.2097 23.6128 24.012 24.5378 23.6334 25.3939C23.2549 26.2499 22.7036 27.0186 22.0143 27.6518C20.5683 28.9791 18.677 29.7155 16.7143 29.7155C14.7515 29.7155 12.8602 28.9791 11.4143 27.6518C10.721 27.0204 10.1671 26.2512 9.78814 25.3934C9.40916 24.5357 9.21341 23.6083 9.21341 22.6705C9.21341 21.7328 9.40916 20.8054 9.78814 19.9476C10.1671 19.0899 10.721 18.3207 11.4143 17.6893C12.8602 16.362 14.7515 15.6255 16.7143 15.6255C18.677 15.6255 20.5683 16.362 22.0143 17.6893C22.7052 18.3239 23.2573 19.0946 23.6359 19.9529C24.0145 20.8113 24.2114 21.7387 24.2143 22.6768Z" stroke="white" stroke-width="3" stroke-linecap="round" stroke-linejoin="round"/>
</svg>
